<svg xmlns="http://www.w3.org/2000/svg" viewBox="0 0 275 275"><defs><style>.cls-1{fill:#d19f59;stroke:#000;stroke-miterlimit:10;stroke-width:3px;}.cls-2{fill:#ff4fa2;}.cls-3{fill:#fdec06;}.cls-4{fill:#42b8ea;}.cls-5{fill:#2ba048;}.cls-6{fill:#e81e25;}.cls-7{fill:#fff;}</style></defs><title>Asset 2</title><g id="Layer_2" data-name="Layer 2"><g id="Layer_4" data-name="Layer 4"><path class="cls-1" d="M273.5,137.5a136,136,0,1,1-136-136A136,136,0,0,1,273.5,137.5Zm-136-40a47,47,0,1,0,47,47A47,47,0,0,0,137.5,97.5Z"/><path class="cls-2" d="M132.19,98.66c-.3,1.47,1.69,2.51,3.13,2.06S137.75,99,138.88,98s2.8-1.77,4.11-1a5.91,5.91,0,0,1,1.26,1.19,10.05,10.05,0,0,0,12.82,1.37c2.48-1.77,4.65-4.87,7.66-4.42,2.42.37,3.83,2.93,4.51,5.28,1.09,3.77,1.32,7.77,2.73,11.43s4.49,7.11,8.41,7.23c2.88.09,5.85-1.62,8.53-.55,3.25,1.29,3.78,5.65,3.36,9.12a42.74,42.74,0,0,1-4.71,15c-2.21,4.16-5.21,8.83-3.41,13.18,1.27,3.07,4.68,5,5.61,8.15,1.38,4.72-3.27,8.94-7.63,11.23s-9.56,4.77-10.47,9.6c-.6,3.16.93,6.42.43,9.59-.81,5.18-6.85,8.13-12.06,7.58s-9.78-3.59-14.26-6.31-9.48-5.29-14.69-4.77c-7,.7-13,6.87-20,6.09a2.7,2.7,0,0,1-1.72-.68,3,3,0,0,1-.59-2c-.17-3.48-.2-7-1.51-10.28S103,178,99.52,178c-2.62,0-5.46,1.52-7.7.17-1.49-.9-2.07-2.74-2.44-4.44A49.64,49.64,0,0,1,89.54,152c1.41-6,3.82-12.84.38-18-1.71-2.55-4.79-4.54-4.83-7.61,0-3.76,4.33-5.69,7.79-7.16a40.43,40.43,0,0,0,16.18-12.61c1.21-1.58,2.33-3.73,1.34-5.45-.4-.71-1.13-1.26-1.29-2.06-.22-1.11.75-2.09,1.7-2.72,6.86-4.57,17.17-2.81,22.12,3.79M18.08,144.27c1.24-.78,2.67.69,3.29,2A23,23,0,0,1,22,163.9c-1.94,5.17-5.71,9.49-7.83,14.6s-2,12,2.56,15.1c2.53,1.74,6,2,8.17,4.15,4.12,4.08.95,11.43,3.44,16.67a10.41,10.41,0,0,0,7.69,5.38,20.86,20.86,0,0,0,9.61-1c1.68-.51,3.89-.95,4.84.52a3.55,3.55,0,0,1,.44,1.6c.42,4.77-1.29,9.49-1.34,14.28S52.21,245.59,57,246c3.94.34,7.47-3,11.42-2.78,4.64.27,7.41,5,10.29,8.69A30.33,30.33,0,0,0,96,262.7v.5a18.82,18.82,0,0,0,12.32-4.05c3.58-2.86,7.37-7.38,11.68-5.81a11,11,0,0,1,3.8,3,46,46,0,0,0,14.46,9.85c5.52,2.38,12.55,3.42,17-.58,4.67-4.18,5.46-12.89,11.61-14.1a14,14,0,0,1,5.07.32,54.32,54.32,0,0,0,21.14-.56c6.4-1.45,13-4.46,16.09-10.24a50.7,50.7,0,0,1,2.45-4.82c3.07-4.44,9.22-5.31,13.61-8.44,2.23-1.59,4-3.76,6.15-5.43s5-2.85,7.63-2l-.7-.31a10.81,10.81,0,0,0,7.6-10c.05-4.6-2.71-9.87.28-13.37,2.24-2.61,6.46-2.39,9.18-4.52a8.92,8.92,0,0,0,3-6.64,39.12,39.12,0,0,0-.74-7.45c-.84-6-.59-12.29,2.08-17.69l.21.8c5.24-4.82,5.22-13.3,2.59-19.92S255.24,129,252,122.63c-.75-1.51-1.44-3.27-.83-4.84s2.38-2.47,3.82-3.47a13.36,13.36,0,0,0,5.37-13.45c-.8-3.81-3.25-7-5.71-10.07q-6.78-8.33-14.36-15.94a6.4,6.4,0,0,1-1.76-2.41c-.84-2.6,1.72-4.9,3.08-7.26,2.72-4.73.45-11-3.54-14.72s-9.32-5.53-14.35-7.64A10.72,10.72,0,0,1,220,40.54c-1.68-1.8-2-4.44-2.66-6.81a19,19,0,0,0-14-13c-4.43-.95-9.32-.33-13.24-2.6-3.7-2.14-5.77-6.46-9.54-8.48a10,10,0,0,0-13.22,4.47l-.23-1.42a23.93,23.93,0,0,1-7.67,8.86,5.38,5.38,0,0,1-3.35,1.24,6,6,0,0,1-2.74-1.19L138.6,12c-2.09-1.37-4.29-2.78-6.77-3s-5.31,1.15-5.81,3.6c-.36,1.75.52,3.54.31,5.31-.29,2.39-2.52,4.16-4.86,4.72s-4.78.19-7.16-.1a97,97,0,0,0-23.28,0c-1.45.17-3,.47-3.92,1.62-1.89,2.48,1.09,6.17,0,9.08l-15.83.32-1.19-.38c-6.56-.64-13.38-.38-19.39,2.3S39.6,43.59,38.82,50.13c-.57,4.81,1.2,9.68,4,13.64,1.62,2.3,3.65,4.52,4,7.3.52,3.74-2.2,7.28-5.5,9.12s-7.12,2.41-10.77,3.36S23.18,86,21,89.05c-1.38,1.91-2,4.53-1,6.64a27.64,27.64,0,0,1,1.76,3c.82,2.44-1.14,4.93-3.24,6.41s-4.61,2.69-5.74,5c-1.26,2.58-.39,5.62.05,8.45a26.12,26.12,0,0,1-2.53,15.67,10.71,10.71,0,0,0-1.64,4.44c-.05,2.35,1.83,4.4,4,5.29a17.36,17.36,0,0,0,7,.84"/><path d="M131.1,99c.54,3.36,3.76,3.27,6.21,2,1.68-.9,4-3,5.85-2.27.62.26,1.33,1.31,2,1.74a11.23,11.23,0,0,0,5.93,2,11,11,0,0,0,5.49-1.18,15.52,15.52,0,0,0,2.37-1.66,13.26,13.26,0,0,1,2-1.66,6,6,0,0,1,6.87,1.82c1.88,2.83,1.61,7.68,2.6,10.87a16.38,16.38,0,0,0,3.2,6.06,10.25,10.25,0,0,0,4.66,3.2c2.5.76,4.41-.39,6.82-.3,7.19.27,6.65,6.08,5.61,11.31a44.69,44.69,0,0,1-4.42,12c-2.15,4.08-5.07,8.89-3,13.61,1.17,2.7,5.08,5,5.5,7.88.83,5.66-4.79,8.69-8.93,10.91-3.86,2.08-8.21,4.68-9.18,9.32-.59,2.83.62,5.49.49,8.3-.26,5.77-5.84,8.44-11,8-7.52-.68-13.33-6.69-20.11-9.43a18.66,18.66,0,0,0-14.87.06c-3,1.21-5.79,3-8.89,3.86-1.89.54-5.08,1.24-6.31-1-.64-1.15-.18-4-.35-5.38-.56-4.54-2.36-9.57-7-11.46-1.75-.72-3.13-.4-5-.46-2.87-.1-5.83-.91-7.16-3.63-1-2.13-.91-5.48-1-7.84-.38-7.93,2.32-14.91,3.18-22.62a15.25,15.25,0,0,0-.88-7.94A13.27,13.27,0,0,0,90,132.23c-.31-.4-.67-.75-1-1.14-2-2.51-3-3-1.46-6.17,2-3.9,5.8-4.49,9.46-6.51a41.39,41.39,0,0,0,8-5.74c2.27-2.08,4.95-4.6,6.2-7.49,1-2.38,0-3-.21-5.11-.36-4.79,7.1-5.44,10.79-4.95A15.89,15.89,0,0,1,132.14,101c.92,1.11,2.5-.49,1.59-1.6A18.15,18.15,0,0,0,120,92.7c-3.33-.07-10.69,1-11.85,5a4.83,4.83,0,0,0,0,1.93c.22,3.1,1.41,4.58-.86,7.39a38.66,38.66,0,0,1-10.69,9c-4,2.3-11.21,3.71-12.46,8.94a6.78,6.78,0,0,0,1.46,5.5c1,1.43,2.41,2.54,3.36,4,1.79,2.8,1.79,6.18,1.29,9.35C89,152,86.61,159.07,87.32,167.37c.35,4.17.55,11.57,5.91,12.39,1.62.24,3.24-.36,4.84-.47a7.55,7.55,0,0,1,7.65,4.13c1.37,2.51,1.58,5.49,1.78,8.28.09,1.24-.19,3,.35,4.13,2,4.25,8.32,2,11.57.66,3.06-1.28,6-3.1,9.2-4,6-1.58,11.51,1.1,16.58,4.12,5.32,3.17,11.11,7.14,17.62,6.43,4.71-.51,9.41-3.47,10.36-8.37.75-3.92-1.64-7.94.34-11.74,1.89-3.61,6.52-5.22,9.84-7.15,4.12-2.4,9-6.78,7.49-12.13-.86-3-3.64-4.57-5.06-7.16-3-5.38,1.74-10.91,3.9-15.67,2.39-5.26,4.93-12.45,3.51-18.33-2-8.3-8.83-3.38-14.34-5.08-9.91-3-4.68-16.49-11.24-22.11C162.29,90.78,158,99,153.28,100c-3.15.63-5.92-.56-8.24-2.58-.95-.83-1.22-1.33-2.45-1.63a3.69,3.69,0,0,0-2.87.35c-.85.38-6,5.12-6.45,2.26-.23-1.43-2.39-.82-2.17.6Z"/><path d="M18.38,145.36c1.65-.35,3.2,4.63,3.47,5.89a22.15,22.15,0,0,1,.45,6.24c-.34,4.9-2.6,9-5.08,13.16-2.79,4.62-5.61,9.28-5.44,14.86.12,4.09,1.89,7.74,5.56,9.73s7.42,2.28,8.55,7.23c.61,2.71.1,5.6.43,8.35a10.9,10.9,0,0,0,7.43,9.5,16.26,16.26,0,0,0,7.46.64c1.27-.15,3.59-1.27,4.77-1.05a6.54,6.54,0,0,1,3.87,3.71c.32,1.48-.4,3.56-.62,5-.71,4.83-1.4,9.75,1.29,14.15a8.39,8.39,0,0,0,9.65,3.94c4.92-1.23,8.81-4.09,13.24.34,2.39,2.39,4.09,5.4,6.44,7.85a31.6,31.6,0,0,0,8,5.93c1.11.58,7.1,3.07,7.11,2.32A1.13,1.13,0,0,0,96,264.32a21.28,21.28,0,0,0,9.38-2c3.49-1.71,5.75-4.89,9.07-6.75,5.61-3.13,9.53,2.82,13.37,5.75a47.08,47.08,0,0,0,8.41,5.16c4.81,2.27,10.65,4,15.9,2.19s7-6.78,9.68-11.21c3.07-5.09,6.29-5,11.91-4.26a55.79,55.79,0,0,0,12.39.27c6.22-.57,12.77-2,18-5.5,5.56-3.73,6.47-10.91,12-14.28,2.72-1.66,5.85-2.56,8.56-4.24,4.5-2.77,7.87-9.16,14.05-8,1.15.2,2.12-1.51.87-2.06L239,219l-.27,2.06a12.26,12.26,0,0,0,8.28-9.44,20.11,20.11,0,0,0-.38-6.19c-.28-1.93-1-4.27-.41-6.23,1.08-3.38,4.05-3.53,6.68-4.57a9.76,9.76,0,0,0,6.69-9.18c.23-3.59-.86-7.17-1.09-10.73a28.92,28.92,0,0,1,2.27-13.84l-2.06-.27.21.8a1.14,1.14,0,0,0,1.88.5c4.42-4.57,5.38-10.77,4.13-16.87-1.7-8.25-7.8-14.08-11.1-21.55-2.8-6.32,2.28-7.59,5.11-11.4a14.72,14.72,0,0,0,2.9-8.47c.1-7.32-5.87-13.27-10.33-18.43-2.84-3.29-6.56-6.35-9.08-9.87-1.08-1.52-2.62-3.9-2.12-6,.17-.73,1.19-1.69,1.6-2.37a12,12,0,0,0,1.93-4.57c.91-5.4-2.22-10.68-6.35-13.92C234.34,46,230.7,44.51,227.1,43s-6.69-2.67-7.94-6.66c-.48-1.51-.74-3-1.32-4.52a20.29,20.29,0,0,0-14.22-12.19c-5.21-1.17-10.67-.23-15-4-2.87-2.5-4.88-6-8.59-7.44a11.2,11.2,0,0,0-13.67,5.36l2,.27-.23-1.41a1.14,1.14,0,0,0-2.06-.27A24.81,24.81,0,0,1,161,18.9c-4.16,3.76-8.08,1-12-1.5-4.43-2.9-9-6.83-14-8.78-2.75-1.08-6-1.24-8.35.88-4.11,3.7.5,11.23-7.09,12.1-6.05.69-12.66-1.06-18.82-.93-3.84.08-10-.52-13.32,1.74S86.29,27,86,30c-.33,3.3-4.39,2.18-6.83,2.23A67.37,67.37,0,0,1,70.06,32c-8.81-.95-18.61.07-25.57,6a18.37,18.37,0,0,0-5.16,21.81c2.12,4.91,8.91,10.18,5.24,15.94s-11.37,5.47-17,7.51c-2.88,1-5.79,2.6-7.57,5.19-2.45,3.57-1.4,5.77,0,9.26,2.37,6.1-6.88,7.88-8.53,12.86-.71,2.16-.31,4.34,0,6.53a27.79,27.79,0,0,1-.26,11.52c-1,4-5,8.32-3,12.57,2,4.42,7.26,4.73,11.46,4.7a1.13,1.13,0,0,0,0-2.25c-4,0-10.54-.22-9.59-6.26.21-1.38,1.5-3,2-4.35a27.8,27.8,0,0,0,2.15-9.69c.16-4.61-2.62-10.65.88-14.46,1.89-2.07,4.77-2.89,6.5-5.21a6,6,0,0,0,1.25-5.3c-.49-1.73-1.31-2.46-1.65-4.39-.65-3.62,1.54-5.88,4.61-7.53,5.74-3.09,12.94-2.42,18.12-6.71,3.67-3,5.16-7.5,3-11.89-1.74-3.61-4.7-6.25-6.07-10.14a15.51,15.51,0,0,1,.87-13C46.07,37,55.08,34.14,63.45,34c3.33-.07,6.5.66,9.78.63,4.62,0,9.23-.19,13.85-.29a1.13,1.13,0,0,0,1.08-.83A12.37,12.37,0,0,0,88.27,30c-.09-2.17-.64-1.22.61-4s2.18-2.4,5.05-2.69a93.64,93.64,0,0,1,17.48,0c5.16.47,15.09,2.27,16-5.44.08-.67-.17-1.4-.11-2.07l1.41-5.07L133,10.3c2.56.33,5.37,2.83,7.5,4.22,4.34,2.85,8.82,6.77,13.59,8.81,5.91,2.54,11.65-5.77,14-10.08L166,13l.23,1.42a1.14,1.14,0,0,0,2.06.27A8.89,8.89,0,0,1,179,10.25c3.47,1.23,5.4,4.59,8,7,4.91,4.41,10.76,3.19,16.69,4.77a17.9,17.9,0,0,1,9.38,6.18c2.51,3.15,2.9,6.75,4.39,10.33,2.3,5.53,9.16,6.45,14,8.91,3.65,1.86,7.08,4.32,9,8.06,2.35,4.7.72,8.1-1.74,12.12-3.29,5.38.92,8.08,4.57,11.94,5.35,5.64,13.2,12.53,15.61,20.06a12.46,12.46,0,0,1-2.55,12.13c-1.8,1.93-5,2.93-6.1,5.52-2.21,5.27,5.16,13.19,7.61,17.27,4.6,7.7,8.55,18.38,1.32,25.85l1.88.49-.21-.8a1.13,1.13,0,0,0-2.05-.27,31.05,31.05,0,0,0-2.58,15c.23,3.55,1.36,7.18,1.09,10.73-.41,5.34-4.24,6.42-8.29,8.11-3.27,1.37-5.17,3.61-5.24,7.28,0,2.63.9,5.14,1,7.74a10,10,0,0,1-6.71,10.31c-.8.29-1.24,1.63-.27,2.06l.7.3.87-2.05c-7.59-1.37-11.09,5.7-17,8.93-5.25,2.89-10.09,4.12-13,9.82-4.15,8.17-11.28,11.46-20.06,12.83a53.52,53.52,0,0,1-13.85.34c-3.22-.34-6.91-1.64-10.1-.4-4.81,1.88-6.17,7.6-8.78,11.5-5.81,8.64-17.15,4-24.13-.43-3.84-2.43-6.6-6-10.27-8.51a6.81,6.81,0,0,0-5-1.32c-2.46.33-4.5,2-6.36,3.56-4.64,3.81-8.55,6.49-14.81,6.53l1.12,1.13v-.5a1.15,1.15,0,0,0-.82-1.09,31.35,31.35,0,0,1-18-12c-2.74-3.55-5.71-7.66-10.69-7.51-2.68.08-4.86,1.6-7.39,2.23-5.58,1.4-9-2.66-9.49-7.93-.39-4.55,3.64-13.61.61-17.77-2.62-3.61-10.36.44-13.72.2-11.54-.8-7.68-10.8-9.81-18.13-1.57-5.39-6.41-5.25-10.34-8.07-7.31-5.26-1.84-15.12,1.63-20.87,3.65-6,6.22-12.17,5.18-19.37-.49-3.35-1.87-10.22-6.56-9.23-1.41.29-.81,2.46.6,2.17Z"/><path class="cls-3" d="M152.35,74.16a14.74,14.74,0,0,1,2-3.75,4.84,4.84,0,0,1,1.25-1.47c.59-.29.31-.26.92.3A6,6,0,0,0,162,70.6c1.89-.4,1.09-3.29-.8-2.89-2.89.61-4-3.67-7-1.58-2.3,1.62-3.82,4.67-4.74,7.23-.66,1.82,2.24,2.6,2.89.8Z"/><path class="cls-4" d="M211.49,69.45a25.33,25.33,0,0,0-3.72,7.44c-.58,1.85,2.32,2.64,2.89.8A23.12,23.12,0,0,1,214.08,71c1.13-1.56-1.47-3.06-2.59-1.51Z"/><path class="cls-3" d="M219.11,162.38c.24-2,1.93-2.72,3.67-3.07s2.94-1.08,3.07-2.86-2.87-1.92-3,0c0-.48-.22-.17-.71-.06-.3.06-.61.09-.91.15a6.36,6.36,0,0,0-2.56,1.17,6.62,6.62,0,0,0-2.56,4.67c-.22,1.91,2.78,1.9,3,0Z"/><path class="cls-3" d="M185.47,209.41c3.18,2.55,2.53,7.54,5.63,10.32,1.43,1.29,3.56-.82,2.12-2.12-3-2.72-2.3-7.66-5.63-10.32-1.49-1.2-3.62.91-2.12,2.12Z"/><path class="cls-3" d="M146.5,248a5.08,5.08,0,0,1,3.2-5.26c1.8-.65,1-3.55-.8-2.89a8.08,8.08,0,0,0-5.4,8.15c.15,1.91,3.15,1.93,3,0Z"/><path class="cls-3" d="M106.48,211.65a42.13,42.13,0,0,0-.18,12.78c.4,2.37,1.45,4.22,4,4.52,1.91.24,1.89-2.76,0-3-2.52-.31-1.09-12-.88-13.5.26-1.89-2.63-2.7-2.9-.8Z"/><path class="cls-3" d="M49.55,207.75c-.37-2.36,5.17-1.24,6.4-1.32a5.9,5.9,0,0,0,4-1.74c1.34-1.39-.78-3.51-2.13-2.12-2,2.05-5.83.09-8.34,1.09a4.35,4.35,0,0,0-2.82,4.89c.3,1.9,3.19,1.09,2.89-.8Z"/><path class="cls-3" d="M66.43,154.05a15.16,15.16,0,0,0-6.47,4c-1.45,1.55-2.87,3.92-1.42,5.93,1.12,1.55,3.73.06,2.59-1.51-.74-1,1.3-2.72,2-3.32a12,12,0,0,1,4.08-2.21c1.83-.58,1-3.48-.8-2.89Z"/><path class="cls-3" d="M24.66,119.1c.7-2.47,1.85-5,4.79-3.91,1.49.57,3.06.71,4.22-.58s-.82-3.56-2.12-2.12c-.35.39-2.61-.67-3.15-.71a5.17,5.17,0,0,0-3,.72c-2.11,1.24-3,3.56-3.66,5.8a1.5,1.5,0,0,0,2.89.8Z"/><path class="cls-3" d="M85.66,86.9c-2.54-3.22-5.51,2.74-6.21,4.43-1.25,3-2.06,7.83,2.43,8.27,1.92.19,1.91-2.81,0-3-1.38-.13.13-3.67.4-4.29a19.7,19.7,0,0,1,.87-1.79l.37-.63c.62-.46.63-.74,0-.87,1.19,1.52,3.3-.62,2.12-2.12Z"/><path class="cls-3" d="M60.84,74.38l4.36-4.71c1.31-1.41-.81-3.54-2.12-2.12l-4.36,4.71c-1.31,1.42.81,3.54,2.12,2.12Z"/><path class="cls-3" d="M122.08,36.62a18,18,0,0,0,0,13.54c.71,1.77,3.61,1,2.89-.8a15.57,15.57,0,0,1,0-12c.72-1.79-2.18-2.56-2.89-.79Z"/><path class="cls-3" d="M184.38,41.58a41.24,41.24,0,0,0,8.67-6.47c1.39-1.35-.73-3.47-2.12-2.13a37.86,37.86,0,0,1-8.06,6c-1.69.94-.18,3.53,1.51,2.59Z"/><path class="cls-4" d="M208.82,125.65a8,8,0,0,1,6,1.63c1.5,1.19,3.63-.92,2.12-2.13a11,11,0,0,0-8.13-2.5c-1.9.2-1.92,3.21,0,3Z"/><path class="cls-4" d="M208.44,203.79a20.8,20.8,0,0,0,11.44-5c1.46-1.27-.67-3.39-2.12-2.12a17.26,17.26,0,0,1-9.32,4.17c-1.9.22-1.92,3.22,0,3Z"/><path class="cls-4" d="M141,211.57q-5.52,3.35-11.33,6.13c-1.74.83-.22,3.41,1.52,2.59q5.82-2.79,11.32-6.13c1.65-1,.15-3.6-1.51-2.59Z"/><path class="cls-4" d="M66.51,230.14a10.18,10.18,0,0,0,7.61-4.25c1.14-1.56-1.46-3.06-2.59-1.52a6.89,6.89,0,0,1-5,2.77c-1.91.14-1.93,3.14,0,3Z"/><path class="cls-4" d="M31.4,174.3a4.42,4.42,0,0,1-.14,2.49,4.55,4.55,0,0,0,.2,2.53,2.93,2.93,0,0,0,3.6,2c1.81-.63,1-3.53-.8-2.89,0,0,.24.19.14.08a1.09,1.09,0,0,1-.22-.46,3.36,3.36,0,0,1,.17-1.4,5.5,5.5,0,0,0-.06-3.14c-.69-1.78-3.59-1-2.89.79Z"/><path class="cls-4" d="M57.89,120.66a8.05,8.05,0,0,1-3,6.89c-1.49,1.23.64,3.34,2.12,2.12a10.8,10.8,0,0,0,3.91-9c-.12-1.92-3.12-1.93-3,0Z"/><path class="cls-4" d="M87.05,51.34a12.82,12.82,0,0,0-9.86-6.58c-1.92-.24-1.9,2.77,0,3a9.69,9.69,0,0,1,7.27,5.1c.92,1.69,3.52.18,2.59-1.52Z"/><path class="cls-4" d="M129.6,78.08a8.12,8.12,0,0,0,3.62,6.74c1.59,1.1,3.09-1.5,1.51-2.59a5,5,0,0,1-2.13-4.15,1.5,1.5,0,0,0-3,0Z"/><path class="cls-4" d="M171.54,40.2a13.54,13.54,0,0,1,3.26-4.82c1.39-1.35-.74-3.47-2.12-2.12a16.91,16.91,0,0,0-4,6.14c-.7,1.81,2.2,2.59,2.89.8Z"/><path class="cls-5" d="M233.5,109.61a15,15,0,0,0,3.85,4.6,1.54,1.54,0,0,0,2.12,0,1.51,1.51,0,0,0,0-2.12,13,13,0,0,1-3.38-4c-.92-1.7-3.51-.18-2.59,1.51Z"/><path class="cls-5" d="M248.68,182A20.86,20.86,0,0,0,238,178.71c-1.93-.06-1.93,2.94,0,3a17.75,17.75,0,0,1,9.16,2.83c1.64,1,3.15-1.56,1.52-2.59Z"/><path class="cls-5" d="M186.19,177.86a9,9,0,0,0,.48,7.79c.92,1.7,3.51.19,2.59-1.51a6.18,6.18,0,0,1-.18-5.48c.74-1.79-2.16-2.56-2.89-.8Z"/><path class="cls-5" d="M95.69,251.76a12.51,12.51,0,0,0,8.78-1.87c1.61-1.06.11-3.66-1.51-2.59a9.4,9.4,0,0,1-6.47,1.57c-1.89-.27-2.71,2.62-.8,2.89Z"/><path class="cls-5" d="M79.3,181.15a5.39,5.39,0,0,0-.09,7.63,1.5,1.5,0,0,0,2.12-2.12,2.36,2.36,0,0,1,.09-3.39c1.41-1.32-.72-3.44-2.12-2.12Z"/><path class="cls-5" d="M33.82,142.36a8.3,8.3,0,0,0,6.68,6.46c1.89.3,2.7-2.59.8-2.89a5.44,5.44,0,0,1-4.59-4.36c-.38-1.9-3.27-1.1-2.89.79Z"/><path class="cls-5" d="M47.14,95.43l-.47-6.31c-.15-1.91-3.15-1.93-3,0l.47,6.31c.15,1.91,3.15,1.92,3,0Z"/><path class="cls-5" d="M94.58,68.92a8.15,8.15,0,0,0,6.23,3c1.93,0,1.93-3,0-3a5.25,5.25,0,0,1-4.1-2.12,1.52,1.52,0,0,0-2.13,0,1.54,1.54,0,0,0,0,2.12Z"/><path class="cls-5" d="M150.71,43.39a14,14,0,0,1,3.1-6.13c1.26-1.45-.85-3.58-2.13-2.12a17.19,17.19,0,0,0-3.86,7.45c-.44,1.88,2.45,2.68,2.89.8Z"/><path class="cls-5" d="M193,93.11a6.14,6.14,0,0,0,2,8.9c1.7.9,3.22-1.68,1.51-2.59a3.17,3.17,0,0,1-.95-4.8c1.18-1.53-1.42-3-2.59-1.51Z"/><path class="cls-5" d="M222.21,58.71,235.63,61c1.89.32,2.7-2.57.8-2.89L223,55.82c-1.89-.32-2.7,2.57-.8,2.89Z"/><path class="cls-6" d="M239.13,148.25a9.07,9.07,0,0,0,6.77-7.06c.35-1.89-2.54-2.7-2.89-.8a6.13,6.13,0,0,1-4.67,5c-1.88.45-1.09,3.34.79,2.9Z"/><path class="cls-6" d="M51.88,179.9a13.3,13.3,0,0,0,9.17,7.37c1.88.42,2.68-2.47.79-2.89a10.52,10.52,0,0,1-7.37-6c-.81-1.75-3.4-.23-2.59,1.51Z"/><path class="cls-6" d="M88.42,237.37a19.71,19.71,0,0,1,6.35-7.53c1.57-1.11.07-3.71-1.51-2.6a22.9,22.9,0,0,0-7.44,8.61c-.84,1.73,1.74,3.25,2.6,1.52Z"/><path class="cls-6" d="M167.83,230.19c-.13,0-.11,0,.07,0l.31.08.15.05.08,0a1.86,1.86,0,0,1,.7.54,1.5,1.5,0,0,0,2.12-2.12,5.15,5.15,0,0,0-3.43-1.6,1.51,1.51,0,0,0-1.5,1.5,1.54,1.54,0,0,0,1.5,1.5Z"/><path class="cls-6" d="M93.41,96.59a9,9,0,0,0,1,7.47c1,1.63,3.63.12,2.59-1.51a6,6,0,0,1-.69-5.16c.58-1.85-2.32-2.64-2.89-.8Z"/><path class="cls-6" d="M54.45,56.23A27.18,27.18,0,0,0,64.83,39.85c.39-1.88-2.5-2.69-2.89-.8a24.16,24.16,0,0,1-9,14.59c-1.51,1.16,0,3.77,1.51,2.59Z"/><path class="cls-6" d="M130.08,59.13a12.72,12.72,0,0,0,9.43.46c1.82-.62,1-3.52-.79-2.89a9.68,9.68,0,0,1-7.12-.16c-1.76-.77-3.29,1.82-1.52,2.59Z"/><path class="cls-6" d="M187.23,68.62a22.39,22.39,0,0,0,.78,7.51,1.51,1.51,0,0,0,2.9-.8,19.73,19.73,0,0,1-.68-6.71c.13-1.93-2.87-1.92-3,0Z"/><path class="cls-6" d="M178.45,19.4A19,19,0,0,0,183,26.67a1.5,1.5,0,0,0,2.12-2.12,15.6,15.6,0,0,1-3.75-5.95c-.62-1.82-3.52-1-2.89.8Z"/><path class="cls-6" d="M228.6,212.88a42.5,42.5,0,0,1,1.54-7.81c.55-1.85-2.34-2.64-2.89-.79a46.65,46.65,0,0,0-1.65,8.6c-.18,1.92,2.82,1.91,3,0Z"/><path class="cls-6" d="M65.77,138,70,142c1.39,1.34,3.52-.78,2.12-2.12l-4.21-4c-1.4-1.34-3.52.78-2.13,2.12Z"/><path class="cls-7" d="M224.25,97.64a10.83,10.83,0,0,1,8.7-1c1.86.55,2.65-2.34.8-2.89a13.88,13.88,0,0,0-11,1.32,1.5,1.5,0,0,0,1.51,2.59Z"/><path class="cls-7" d="M202.39,181.43a11.89,11.89,0,0,0,10,4.46c1.92-.1,1.93-3.1,0-3a9.13,9.13,0,0,1-7.86-3.58c-1.2-1.51-3.31.63-2.12,2.12Z"/><path class="cls-7" d="M159.3,215.26a15.3,15.3,0,0,0,2-10.24c-.27-1.9-3.16-1.09-2.9.8a11.92,11.92,0,0,1-1.74,7.92c-1,1.66,1.58,3.16,2.59,1.52Z"/><path class="cls-7" d="M94.47,194.1a30.59,30.59,0,0,1,6.34-1.88c1.89-.35,1.09-3.24-.8-2.89A33.47,33.47,0,0,0,93,191.51c-1.77.75-.25,3.33,1.51,2.59Z"/><path class="cls-7" d="M73.15,209a7.32,7.32,0,0,0,1.34,8.14c1.32,1.4,3.44-.72,2.12-2.13a4.18,4.18,0,0,1-.87-4.5c.76-1.75-1.82-3.28-2.59-1.51Z"/><path class="cls-7" d="M41.7,122.93A15.12,15.12,0,0,0,32.48,125,1.5,1.5,0,0,0,34,127.6a12.38,12.38,0,0,1,7.71-1.67c1.92.18,1.91-2.82,0-3Z"/><path class="cls-7" d="M71.85,98.18q-3-7-5.68-14.11c-.68-1.79-3.58-1-2.89.8q2.82,7.47,6,14.82c.75,1.77,3.34.24,2.59-1.51Z"/><path class="cls-7" d="M109.07,40.73c-3.27,1.19-6.55,2.35-9.8,3.57-2,.74-3.9,1.6-4.32,3.84-.35,1.89,2.54,2.7,2.89.8s4.59-2.61,6-3.11l6.07-2.21c1.79-.66,1-3.56-.8-2.89Z"/><path class="cls-7" d="M110.67,86.12l7.17,4.62c1.62,1.05,3.13-1.54,1.51-2.59l-7.16-4.62c-1.63-1-3.14,1.55-1.52,2.59Z"/><path class="cls-7" d="M165.55,55.22a10.94,10.94,0,0,0,3.37,8.39c1.39,1.33,3.52-.78,2.12-2.12a8,8,0,0,1-2.49-6.27c.08-1.93-2.92-1.93-3,0Z"/><path class="cls-7" d="M173,101.18a34.48,34.48,0,0,1,8.82,2.38c1.76.74,3.29-1.84,1.52-2.59a36.94,36.94,0,0,0-9.54-2.68c-1.89-.26-2.7,2.63-.8,2.89Z"/><path class="cls-7" d="M122.49,249.9l4,0,2,0a2.11,2.11,0,0,0,1.85-.63c-1.53,1.13,0,3.74,1.52,2.59a2.63,2.63,0,0,0-.42-4.57,8.18,8.18,0,0,0-3.62-.38l-5.29,0a1.5,1.5,0,0,0,0,3Z"/><path class="cls-7" d="M137,22.19q7.15,1.92,14.22,4.19V23.49l-1.51.43a1.5,1.5,0,0,0,.8,2.89l1.51-.43a1.51,1.51,0,0,0,0-2.89Q145,21.23,137.82,19.3a1.5,1.5,0,0,0-.8,2.89Z"/><path class="cls-7" d="M203.27,25.72a7.72,7.72,0,0,0,3.2,10.35c1.71.88,3.23-1.71,1.51-2.59a4.7,4.7,0,0,1-2.12-6.24c.88-1.72-1.7-3.24-2.59-1.52Z"/><path class="cls-7" d="M202.62,237.4c-.33,0-.05.1,0,0a2,2,0,0,1,.07-.36,4.23,4.23,0,0,1,1.36-1.3,1.51,1.51,0,0,0,0-2.13,1.55,1.55,0,0,0-2.12,0c-1.21.95-2.39,2.18-2.32,3.83a3,3,0,0,0,3,3,1.54,1.54,0,0,0,1.5-1.5,1.5,1.5,0,0,0-1.5-1.5Z"/></g></g></svg>